<svg xmlns="http://www.w3.org/2000/svg" viewBox="0 0 140 200" role="img" aria-label="RISKS INTERNATIONAL">
  <title>RISKS INTERNATIONAL</title>
  <g fill="#0b1d44">
    <polygon points="70 0 130 15 70 30 10 15" />
    <polygon points="70 24 130 39 130 50 70 65 10 50 10 39" />
    <polygon points="70 59 130 74 130 85 70 100 10 85 10 74" />
    <polygon points="70 94 130 109 130 120 70 135 10 120 10 109" />
    <polygon points="70 129 130 144 130 155 70 170 10 155 10 144" />
    <polygon points="70 164 130 179 70 194 10 179" />
  </g>
</svg>
